<svg width="97" height="100" viewBox="0 0 97 100" fill="none" xmlns="http://www.w3.org/2000/svg">
<path d="M1.60128 52.3154C-1.03928 28.4461 19.8234 5.03074 43.6654 4.12305C40.0163 7.51535 34.7352 7.41535 30.4549 9.5692C12.8179 16.8692 1.29334 36.423 3.78762 55.3923C5.29651 70.3769 15.1351 84.1307 28.7459 90.5538C46.1674 99.5923 68.8777 94.5923 81.8187 80.2307C88.8012 72.123 93.1046 61.5461 92.8428 50.7846C93.4587 33.8615 82.8118 17.0692 67.261 10.3538C63.0346 7.49228 57.3224 7.80766 53.5348 4.1692C76.4452 5.46151 95.8298 27.1615 95.2371 50C96.0685 70 81.9419 89.1077 62.9499 95.0153C46.5138 100.715 27.0137 96.0538 14.9272 83.5538C6.68223 75.4538 1.07778 64.0307 1.60128 52.3154Z" fill="#0D4BA0"/>
<path d="M8.43742 37.6077C12.5407 25.1616 22.8335 14.1616 35.6975 10.9C25.2969 21.2846 21.2245 37.1846 25.1276 51.3154C28.2685 63.0462 36.8754 72.9846 47.7686 78.2539C38.8385 82.0077 28.9999 82.7154 19.5154 80.9846C8.09869 70.0539 3.32567 52.6769 8.43742 37.6077Z" fill="#0D4BA0"/>
<path d="M61.0253 10.8539C63.1193 11.3616 65.1747 11.9923 67.2456 12.5847C70.4867 15.3616 74.4821 17.1693 77.3921 20.3616C94.2747 35.5462 94.7366 65.4231 77.3844 80.2462C68.0539 83.0077 57.8536 82.3231 48.985 78.3231C62.8036 71.5385 72.8732 57.1231 72.9116 41.5385C73.5429 30.2 68.8238 18.9847 61.0253 10.8539Z" fill="#F9A919"/>
<path d="M45.7055 31.9615C52.8265 28.7923 62.2032 35.2384 61.3872 43.0769C62.0338 48.3846 57.8074 53 53.0344 54.6154C46.1366 56.8461 38.1303 51.0846 38.0148 43.8615C37.4836 38.7307 40.9325 33.7 45.7055 31.9615Z" fill="#29A946"/>
<path d="M19.5155 80.9846C28.9999 82.7154 38.8385 82.0077 47.7687 78.2538L48.3461 78.0615L48.985 78.3231C57.8536 82.3231 68.054 83.0077 77.3845 80.2461C74.4052 84.7308 69.2242 86.8461 64.5589 89.1C49.6394 95.4461 31.2479 92.2 19.5155 80.9846Z" fill="#29A946"/>
</svg>
