<svg width="163" height="36" viewBox="0 0 163 36" fill="none" xmlns="http://www.w3.org/2000/svg">
<g clip-path="url(#clip0_206_2930)">
<path d="M99.4952 0C85.7424 0 74.5975 8.05671 74.5975 17.9989C74.5975 27.9411 85.7446 35.9978 99.4952 35.9978C113.246 35.9978 124.393 27.9389 124.393 17.9989C124.393 8.05891 113.246 0 99.4952 0ZM99.4952 27.6001C89.9999 27.6001 82.8932 22.5333 82.8932 17.9989C82.8932 13.4645 89.9999 8.39553 99.4952 8.39553C108.991 8.39553 116.097 13.4645 116.097 17.9989C116.097 22.5333 109.014 27.6001 99.4952 27.6001Z" fill="#005BFF"/>
<path d="M17.7931 4.05353e-06C7.97179 -0.0065962 0.006524 8.04792 4.00424e-06 17.9879C-0.006516 27.9279 7.95006 35.9912 17.7692 36C27.5883 36.0044 35.5536 27.9521 35.5623 18.0121V17.9901C35.5623 8.05232 27.6057 4.05353e-06 17.7931 4.05353e-06ZM27.271 17.9879C27.271 23.2901 23.0286 27.5891 17.7909 27.5957C12.551 27.6023 8.29562 23.3055 8.2891 17.9989C8.28258 12.6945 12.5271 8.38673 17.7692 8.38233C23.0091 8.37573 27.2645 12.6725 27.271 17.9769V17.9879Z" fill="#005BFF"/>
<path d="M45.1575 0.807373C42.5843 0.807373 40.4066 3.17687 40.9391 5.87417C41.3303 7.85425 43.1624 9.2051 45.1575 9.2051H56.7349L38.7179 33.2696C38.1246 34.0573 38.6832 35.1925 39.6612 35.1925H67.9254C69.9161 35.1925 71.7526 33.8395 72.1395 31.8616C72.6763 29.1643 70.6486 26.7948 68.0797 26.7948H53.9726L71.9765 2.75005C72.572 1.95362 72.0134 0.807373 71.0224 0.807373H45.1554H45.1575Z" fill="#005BFF"/>
<path d="M163 5.00734V33.9781C163 34.2487 162.909 34.5127 162.744 34.7239C162.335 35.2541 161.581 35.3465 161.059 34.9307L138.622 16.8988V30.9925C138.622 33.3114 136.766 35.1925 134.471 35.1925C132.176 35.1925 130.32 33.3114 130.32 30.9925V2.01962C130.32 1.74021 130.413 1.4674 130.589 1.24959C131.004 0.734773 131.752 0.65777 132.263 1.07799L154.698 19.1011V5.00734C154.698 2.68625 156.556 0.805176 158.849 0.805176C161.142 0.805176 163 2.68625 163 5.00734Z" fill="#005BFF"/>
</g>
<defs>
<clipPath id="clip0_206_2930">
<rect width="163" height="36" fill="white"/>
</clipPath>
</defs>
</svg>
