<svg width="21" height="21" viewBox="0 0 21 21" fill="none" xmlns="http://www.w3.org/2000/svg">
<path d="M0 17.7253V13.5768C0.000234378 12.9511 0.507034 12.444 1.13281 12.444C1.75859 12.444 2.26539 12.9511 2.26562 13.5768V17.7253C2.26562 17.9748 2.36524 18.2142 2.54167 18.3906C2.71809 18.567 2.95753 18.6667 3.20703 18.6667H17.7253C17.9748 18.6667 18.2142 18.567 18.3906 18.3906C18.567 18.2142 18.6667 17.9748 18.6667 17.7253V13.5768C18.6669 12.9511 19.1737 12.444 19.7995 12.444C20.4253 12.444 20.9321 12.9511 20.9323 13.5768V17.7253C20.9323 18.5759 20.595 19.392 19.9935 19.9935C19.392 20.595 18.5759 20.9323 17.7253 20.9323H3.20703C2.35637 20.9323 1.54031 20.595 0.938802 19.9935C0.337296 19.392 0 18.5759 0 17.7253ZM9.33333 1.13281C9.33333 0.50689 9.84022 0 10.4661 0C11.0921 1.7188e-07 11.599 0.50689 11.599 1.13281V10.8424L14.8503 7.59115C15.2929 7.14855 16.0105 7.14855 16.4531 7.59115C16.8953 8.03377 16.8956 8.75156 16.4531 9.19401L11.2669 14.3789C10.8244 14.8209 10.1078 14.8209 9.66536 14.3789L4.47917 9.19401C4.03672 8.75156 4.03701 8.03377 4.47917 7.59115C4.92176 7.14855 5.63944 7.14855 6.08203 7.59115L9.33333 10.8424V1.13281Z" fill="#060C23"/>
</svg>
